<svg id="Layer_1" data-name="Layer 1" xmlns="http://www.w3.org/2000/svg" xmlns:xlink="http://www.w3.org/1999/xlink" viewBox="0 0 150 150"><defs><style>.cls-1{fill:#9c29b2;}.cls-2{fill:url(#linear-gradient);}.cls-3{fill:url(#linear-gradient-2);}.cls-4{fill:#ffe08a;}.cls-5{fill:url(#linear-gradient-3);}.cls-6{fill:url(#linear-gradient-4);}</style><linearGradient id="linear-gradient" x1="17.18" y1="29.72" x2="83.93" y2="29.72" gradientUnits="userSpaceOnUse"><stop offset="0.03" stop-color="#ec3b94"/><stop offset="1" stop-color="#5b29b2"/></linearGradient><linearGradient id="linear-gradient-2" x1="18.49" y1="122.12" x2="87.3" y2="122.12" xlink:href="#linear-gradient"/><linearGradient id="linear-gradient-3" x1="352.31" y1="-993.56" x2="367.54" y2="-972.76" gradientTransform="translate(-62.24 1159.11) rotate(-12.44)" xlink:href="#linear-gradient"/><linearGradient id="linear-gradient-4" x1="746.57" y1="-2150.03" x2="761.8" y2="-2129.23" gradientTransform="matrix(0.99, 0.17, 0.17, -0.99, -306.83, -2207.93)" xlink:href="#linear-gradient"/></defs><g id="Color"><path class="cls-1" d="M56,125.65a35.69,35.69,0,0,0,7.46,1.71l-2.15-2.06a13.27,13.27,0,0,1-3-4,7.19,7.19,0,0,1,2.44-9.23,11.27,11.27,0,0,1,12.43-.18,14.06,14.06,0,0,1,4.49,4.62,20.82,20.82,0,0,0,7.2,7,1.21,1.21,0,0,0,1.08.14,39.86,39.86,0,0,0,14.6-7.1c1.79-1.44,3.45-3,5.15-4.58a40.45,40.45,0,0,1,6.47-5.19c4.92-2.86,9.9-3.09,14.84-.17a11.44,11.44,0,0,1,5.76,9.81,6.41,6.41,0,0,1-1,3.38,28.23,28.23,0,0,1-5.29,6.63,73.52,73.52,0,0,1-17.48,12.11,90,90,0,0,1-11.81,5.08,2.69,2.69,0,0,1-1.22.15,70.11,70.11,0,0,1-33.85-13c-2-1.49-3.89-3.19-5.83-4.8A4.25,4.25,0,0,1,56,125.65Z"/><path class="cls-1" d="M60.94,23a35.83,35.83,0,0,0-7.27,2c.84-.85,1.59-1.67,2.4-2.42A68.43,68.43,0,0,1,86.94,6.22C89,5.73,91,5.38,93.05,5a1.47,1.47,0,0,1,.69,0,89.16,89.16,0,0,1,25.65,12.17,41.32,41.32,0,0,1,9.07,8.29c.38.49.7,1,1.07,1.52a7,7,0,0,1,1.16,5.55,11.75,11.75,0,0,1-3.94,7.22,9.33,9.33,0,0,1-5.19,2.1,20.39,20.39,0,0,1-11.28-2.07,32,32,0,0,1-7.22-4.8,50.77,50.77,0,0,0-14.63-8.31c-1.36-.53-2.75-1-4.12-1.47a1,1,0,0,0-.94.11A20.56,20.56,0,0,0,75.89,33a13.53,13.53,0,0,1-5.44,5.65c-3.92,2-7.84,2-11.59-.41a6.8,6.8,0,0,1-3.25-5.67,8.75,8.75,0,0,1,1.52-5,24.35,24.35,0,0,1,3.49-4.09,3.83,3.83,0,0,0,.29-.28S60.93,23.1,60.94,23Z"/><path class="cls-2" d="M83.93,3.54c-1.32.42-2.65.81-4,1.25A70.5,70.5,0,0,0,53.68,20.35,61,61,0,0,0,42.53,34.18a12.6,12.6,0,0,1-1.84,2.11A153.4,153.4,0,0,0,25.53,55a4.45,4.45,0,0,1-5.33,1.69,4.54,4.54,0,0,1-3-4.67,72.15,72.15,0,0,1,1.43-11.43,43.64,43.64,0,0,1,9-18.39A52.23,52.23,0,0,1,55.75,4.42a52.3,52.3,0,0,1,14.93-1.9,69.47,69.47,0,0,1,11,1,8.65,8.65,0,0,0,1.9,0c.13,0,.26,0,.38,0Z"/><path class="cls-3" d="M87.3,145.72l-.1.05c-2.22-.2-4.3.61-6.45.88a68.34,68.34,0,0,1-11.33.82c-12.73-.59-24.27-4.41-34.12-12.68A46,46,0,0,1,21,114.37a53.08,53.08,0,0,1-2.07-8.8c-.17-1-.31-2-.44-3.09a5.16,5.16,0,0,1,9.06-3.9c2.28,2.73,4.48,5.53,6.89,8.15,3.07,3.32,6.32,6.49,9.49,9.73a4.26,4.26,0,0,1,.48.57,62.77,62.77,0,0,0,17.43,17.66,71.94,71.94,0,0,0,24.86,10.88Z"/><path class="cls-4" d="M72.6,45.53c.09.62.17,1.24.26,1.87.47,3.54.92,7.08,1.44,10.62A23.73,23.73,0,0,0,77,66.41a14.61,14.61,0,0,0,8.72,6.69A48.79,48.79,0,0,0,94,74.72c3.1.43,6.22.81,9.33,1.21a.28.28,0,0,1,.18.1c-1.59.21-3.19.4-4.78.62a96.18,96.18,0,0,0-11.81,1.91,16.44,16.44,0,0,0-7.76,4.24A16.91,16.91,0,0,0,75.19,90a50.79,50.79,0,0,0-1.5,8c-.41,3.1-.77,6.2-1.22,9.3-.1-.76-.19-1.53-.3-2.3-.61-4.25-1.14-8.51-1.84-12.74a18.82,18.82,0,0,0-3.09-7.8,15,15,0,0,0-8.13-5.61,43.39,43.39,0,0,0-7.49-1.5c-3.19-.43-6.38-.83-9.59-1.32l2.46-.4c4.57-.76,9.16-1.41,13.69-2.33C64.58,72,68.49,68,69.81,61.64c.91-4.38,1.52-8.82,2.25-13.24.16-.95.29-1.91.44-2.86Z"/><path class="cls-5" d="M103.09,126.21s-17,3.69-25.44-9.84-28-2.84-16.41,8.65S87.18,140.67,103.09,126.21Z"/><path class="cls-6" d="M100.66,22.4s-17.16-2.87-24.94,11S47.9,37.6,58.92,25.58,84.09,8.72,100.66,22.4Z"/></g></svg>